<?xml version="1.0" standalone="no"?>
<!DOCTYPE svg PUBLIC "-//W3C//DTD SVG 20010904//EN"
 "http://www.w3.org/TR/2001/REC-SVG-20010904/DTD/svg10.dtd">
<svg version="1.0" xmlns="http://www.w3.org/2000/svg"
 width="388.000000pt" height="388.000000pt" viewBox="0 0 388.000000 388.000000"
 preserveAspectRatio="xMidYMid meet">
<metadata>
Created by potrace 1.14, written by Peter Selinger 2001-2017
</metadata>
<g transform="translate(0.000000,388.000000) scale(0.100000,-0.100000)"
fill="#000000" stroke="none">
<path d="M1966 3851 c-18 -7 -18 -8 4 -14 27 -7 39 -1 24 12 -5 5 -18 5 -28 2z"/>
<path d="M2090 3841 c0 -12 39 -25 47 -17 4 3 -1 6 -10 6 -9 0 -17 5 -17 10 0
6 -4 10 -10 10 -5 0 -10 -4 -10 -9z"/>
<path d="M1828 3833 c7 -3 16 -2 19 1 4 3 -2 6 -13 5 -11 0 -14 -3 -6 -6z"/>
<path d="M2386 3768 c3 -5 9 -7 12 -4 3 3 12 0 20 -7 13 -10 14 -9 10 3 -2 8
-14 16 -26 16 -12 1 -19 -3 -16 -8z"/>
<path d="M3841 3654 c0 -11 3 -14 6 -6 3 7 2 16 -1 19 -3 4 -6 -2 -5 -13z"/>
<path d="M196 3632 c-3 -5 1 -9 9 -9 8 0 12 4 9 9 -3 4 -7 8 -9 8 -2 0 -6 -4
-9 -8z"/>
<path d="M3835 3620 c-3 -5 1 -10 10 -10 9 0 13 5 10 10 -3 6 -8 10 -10 10 -2
0 -7 -4 -10 -10z"/>
<path d="M3728 3613 c7 -3 16 -2 19 1 4 3 -2 6 -13 5 -11 0 -14 -3 -6 -6z"/>
<path d="M3730 3589 c0 -5 5 -7 10 -4 6 3 10 8 10 11 0 2 -4 4 -10 4 -5 0 -10
-5 -10 -11z"/>
<path d="M3860 3560 c-9 -6 -10 -10 -3 -10 6 0 15 5 18 10 8 12 4 12 -15 0z"/>
<path d="M3622 3525 c-11 -12 -10 -15 3 -15 8 0 15 7 15 15 0 18 -2 18 -18 0z"/>
<path d="M3735 3520 c-3 -5 -1 -10 4 -10 6 0 11 5 11 10 0 6 -2 10 -4 10 -3 0
-8 -4 -11 -10z"/>
<path d="M3620 3485 c0 -8 2 -15 4 -15 2 0 6 7 10 15 3 8 1 15 -4 15 -6 0 -10
-7 -10 -15z"/>
<path d="M3848 3493 c7 -3 16 -2 19 1 4 3 -2 6 -13 5 -11 0 -14 -3 -6 -6z"/>
<path d="M1998 3443 c7 -3 16 -2 19 1 4 3 -2 6 -13 5 -11 0 -14 -3 -6 -6z"/>
<path d="M86 3387 c3 -10 9 -15 12 -12 3 3 0 11 -7 18 -10 9 -11 8 -5 -6z"/>
<path d="M1848 3353 c7 -3 16 -2 19 1 4 3 -2 6 -13 5 -11 0 -14 -3 -6 -6z"/>
<path d="M68 3343 c7 -3 16 -2 19 1 4 3 -2 6 -13 5 -11 0 -14 -3 -6 -6z"/>
<path d="M1851 3313 c6 -7 17 -13 23 -12 7 0 6 2 -2 6 -6 2 -10 8 -8 12 3 4
-1 8 -9 8 -11 0 -12 -4 -4 -14z"/>
<path d="M3230 3292 c-17 -13 -35 -33 -41 -44 -7 -13 4 -7 26 15 20 20 40 36
44 35 19 -2 41 3 41 10 0 16 -41 7 -70 -16z"/>
<path d="M550 3306 c0 -2 7 -6 15 -10 8 -3 15 -1 15 4 0 6 -7 10 -15 10 -8 0
-15 -2 -15 -4z"/>
<path d="M618 3303 c7 -3 16 -2 19 1 4 3 -2 6 -13 5 -11 0 -14 -3 -6 -6z"/>
<path d="M698 3303 c7 -3 16 -2 19 1 4 3 -2 6 -13 5 -11 0 -14 -3 -6 -6z"/>
<path d="M813 3303 c9 -2 23 -2 30 0 6 3 -1 5 -18 5 -16 0 -22 -2 -12 -5z"/>
<path d="M1683 3303 c9 -2 25 -2 35 0 9 3 1 5 -18 5 -19 0 -27 -2 -17 -5z"/>
<path d="M3088 3303 c7 -3 16 -2 19 1 4 3 -2 6 -13 5 -11 0 -14 -3 -6 -6z"/>
<path d="M3361 3294 c0 -11 3 -14 6 -6 3 7 2 16 -1 19 -3 4 -6 -2 -5 -13z"/>
<path d="M593 3275 c0 -8 5 -15 11 -15 5 0 20 -10 33 -22 13 -12 24 -20 26
-17 2 2 -13 18 -33 36 -24 21 -37 27 -37 18z"/>
<path d="M1731 3274 c0 -11 3 -14 6 -6 3 7 2 16 -1 19 -3 4 -6 -2 -5 -13z"/>
<path d="M3242 3249 c-43 -31 -56 -47 -24 -30 32 18 86 61 76 61 -6 0 -29 -14
-52 -31z"/>
<path d="M3835 3259 c-4 -6 -5 -12 -2 -15 2 -3 7 2 10 11 7 17 1 20 -8 4z"/>
<path d="M540 3249 c8 -5 29 -17 45 -25 l30 -16 -30 26 c-16 14 -37 25 -45 25
-13 1 -13 0 0 -10z"/>
<path d="M3361 3244 c0 -11 3 -14 6 -6 3 7 2 16 -1 19 -3 4 -6 -2 -5 -13z"/>
<path d="M3640 3250 c-9 -6 -10 -10 -3 -10 6 0 15 5 18 10 8 12 4 12 -15 0z"/>
<path d="M3728 3253 c7 -3 16 -2 19 1 4 3 -2 6 -13 5 -11 0 -14 -3 -6 -6z"/>
<path d="M1567 3229 c7 -7 15 -10 18 -7 3 3 -2 9 -12 12 -14 6 -15 5 -6 -5z"/>
<path d="M1668 3233 c7 -3 16 -2 19 1 4 3 -2 6 -13 5 -11 0 -14 -3 -6 -6z"/>
<path d="M1913 3233 c9 -2 23 -2 30 0 6 3 -1 5 -18 5 -16 0 -22 -2 -12 -5z"/>
<path d="M2178 3233 c6 -2 18 -2 25 0 6 3 1 5 -13 5 -14 0 -19 -2 -12 -5z"/>
<path d="M3270 3220 c-19 -11 -31 -19 -27 -20 11 0 67 29 67 35 0 7 -1 7 -40
-15z"/>
<path d="M200 3219 c0 -5 5 -7 10 -4 6 3 10 8 10 11 0 2 -4 4 -10 4 -5 0 -10
-5 -10 -11z"/>
<path d="M1820 3219 c0 -5 -5 -7 -12 -3 -7 4 -8 3 -4 -4 4 -7 3 -12 -2 -12
-10 0 -49 -80 -44 -92 1 -5 -1 -8 -5 -8 -9 0 -7 -199 1 -208 7 -6 10 55 7 116
-6 98 48 203 111 215 15 3 9 5 -14 6 -21 0 -38 -4 -38 -10z"/>
<path d="M3361 3204 c0 -11 3 -14 6 -6 3 7 2 16 -1 19 -3 4 -6 -2 -5 -13z"/>
<path d="M625 3200 c3 -5 8 -10 11 -10 2 0 4 5 4 10 0 6 -5 10 -11 10 -5 0 -7
-4 -4 -10z"/>
<path d="M3651 3194 c0 -11 3 -14 6 -6 3 7 2 16 -1 19 -3 4 -6 -2 -5 -13z"/>
<path d="M560 3190 c8 -5 22 -10 30 -10 13 0 13 1 0 10 -8 5 -22 10 -30 10
-13 0 -13 -1 0 -10z"/>
<path d="M3095 3169 c-28 -19 -28 -20 -5 -14 27 8 46 22 39 29 -3 3 -18 -4
-34 -15z"/>
<path d="M615 3170 c3 -5 11 -10 16 -10 6 0 7 5 4 10 -3 6 -11 10 -16 10 -6 0
-7 -4 -4 -10z"/>
<path d="M1629 3164 c6 -12 7 -25 3 -29 -4 -3 -2 -5 4 -3 16 4 55 -42 47 -55
-3 -6 -1 -7 5 -3 19 11 15 22 -29 68 -22 23 -36 33 -30 22z"/>
<path d="M2142 3155 c-6 -14 -8 -25 -3 -25 8 0 23 41 17 47 -1 2 -8 -8 -14
-22z"/>
<path d="M3255 3170 c-16 -7 -17 -9 -3 -9 9 -1 20 4 23 9 7 11 7 11 -20 0z"/>
<path d="M723 3159 c27 -16 20 -32 -13 -27 -16 3 -30 1 -30 -4 0 -11 46 -21
70 -15 11 3 20 1 20 -4 0 -5 8 -10 18 -10 9 -1 4 -5 -13 -9 -29 -8 -29 -8 8
-7 20 1 37 2 37 3 0 0 -11 13 -25 28 -14 15 -23 31 -20 36 5 8 -28 20 -55 20
-12 -1 -11 -3 3 -11z"/>
<path d="M3166 3152 c-2 -4 11 -6 30 -4 19 2 34 6 34 8 0 8 -59 4 -64 -4z"/>
<path d="M573 3138 c16 -10 97 -10 97 0 0 4 -25 8 -55 8 -30 0 -49 -4 -42 -8z"/>
<path d="M3096 3142 c-22 -5 -53 -32 -37 -32 5 0 12 4 15 9 3 5 15 7 25 4 11
-3 27 -1 36 5 16 8 16 9 -1 14 -11 2 -28 2 -38 0z"/>
<path d="M3725 3100 c3 -5 10 -10 16 -10 5 0 9 5 9 10 0 6 -7 10 -16 10 -8 0
-12 -4 -9 -10z"/>
<path d="M1618 3093 c6 -2 18 -2 25 0 6 3 1 5 -13 5 -14 0 -19 -2 -12 -5z"/>
<path d="M3005 3080 c-16 -11 -30 -24 -30 -29 0 -5 -17 -21 -37 -35 -21 -14
-50 -34 -65 -44 -90 -63 -218 -145 -260 -168 -26 -15 -67 -40 -91 -55 -24 -16
-45 -29 -47 -29 -2 0 -39 -21 -82 -47 -80 -47 -255 -133 -272 -133 -5 0 -14
-14 -20 -31 -13 -39 -13 -39 0 -39 5 0 7 5 4 10 -4 6 11 11 37 11 l43 2 -40 7
c-22 4 106 9 285 11 l325 4 -315 5 c-173 3 -310 7 -305 8 6 2 186 5 400 7 215
3 408 8 430 11 114 16 146 16 179 0 19 -9 40 -16 48 -16 7 0 24 -9 38 -20 17
-14 41 -20 78 -20 l52 0 1 -347 c0 -192 2 -343 4 -338 2 6 5 194 7 418 l3 408
-50 -7 c-76 -11 -126 -4 -99 14 6 4 14 16 18 26 7 20 7 20 -16 0 -12 -10 -30
-28 -39 -38 -11 -13 -28 -19 -54 -18 -20 1 -46 -3 -56 -9 -13 -7 -19 -6 -19 1
0 6 -4 8 -10 5 -5 -3 -10 0 -11 7 0 7 -5 1 -10 -13 l-10 -26 -187 -12 c-103
-7 -288 -11 -412 -9 l-225 3 135 69 c153 78 433 246 460 276 6 6 110 77 154
105 17 10 33 23 34 27 2 5 18 22 35 38 37 35 34 38 -8 10z m352 -484 c0 -11
-13 -15 -51 -14 -51 1 -51 1 -21 14 40 18 72 17 72 0z m3 -47 c0 -11 -36 -12
-81 -2 l-34 8 45 5 c49 6 70 3 70 -11z m-67 -21 c9 0 17 -3 17 -8 0 -5 9 -7
20 -5 11 2 22 0 25 -6 4 -5 -8 -9 -24 -9 -18 0 -31 5 -32 13 0 9 -2 9 -6 0 -3
-10 -11 -9 -34 2 -34 18 -38 29 -6 19 12 -4 30 -7 40 -6z"/>
<path d="M3618 3093 c7 -3 16 -2 19 1 4 3 -2 6 -13 5 -11 0 -14 -3 -6 -6z"/>
<path d="M198 3073 c7 -3 16 -2 19 1 4 3 -2 6 -13 5 -11 0 -14 -3 -6 -6z"/>
<path d="M830 3070 c0 -5 4 -10 9 -10 14 0 83 -67 74 -72 -4 -3 -2 -3 6 -1 15
4 141 -76 141 -89 0 -5 8 -8 18 -8 15 0 15 -2 2 -11 -13 -9 -12 -10 3 -5 11 3
52 -17 115 -57 129 -84 248 -153 354 -208 86 -43 87 -44 56 -51 -34 -7 -222
-11 -557 -12 -186 -1 -205 0 -209 16 -2 10 -7 16 -11 13 -19 -11 -60 -12 -64
-1 -3 7 -24 11 -56 10 -28 -1 -49 2 -46 6 3 5 -6 21 -20 37 -18 21 -24 24 -25
12 0 -9 7 -22 15 -29 21 -17 19 -30 -4 -30 -11 0 -21 -3 -24 -7 -2 -5 -3 -3
-1 3 2 12 -48 24 -99 24 -19 0 -26 4 -21 12 4 7 3 8 -4 4 -22 -13 -12 -26 21
-26 17 -1 46 -7 62 -15 29 -13 28 -13 -37 -14 -57 -1 -66 -3 -61 -17 3 -9 0
-20 -8 -25 -12 -7 -11 -9 2 -9 11 0 15 -8 14 -27 -2 -19 -1 -21 2 -5 3 16 12
22 31 23 15 1 60 3 101 5 56 2 81 8 102 23 35 26 39 26 39 1 0 -18 6 -20 63
-18 l62 2 -57 3 c-41 3 -58 8 -58 18 0 10 9 12 38 7 41 -8 589 -10 773 -3 114
4 172 -5 119 -20 -25 -7 -25 -7 -2 -8 13 -1 20 -5 17 -11 -3 -5 -2 -10 4 -10
5 0 12 -10 14 -22 3 -13 4 -3 3 22 l-1 45 -80 41 c-145 74 -239 127 -296 166
-31 21 -59 38 -62 38 -12 0 -127 81 -127 89 0 5 -6 8 -12 7 -15 -1 -235 143
-275 180 -27 25 -43 30 -43 14z m-199 -538 c12 -5 -3 -8 -43 -10 -35 -1 -72
-3 -82 -5 -24 -3 -33 20 -9 25 25 5 110 -1 134 -10z"/>
<path d="M1598 3073 c7 -3 16 -2 19 1 4 3 -2 6 -13 5 -11 0 -14 -3 -6 -6z"/>
<path d="M1955 3059 c-22 -10 -33 -18 -25 -18 8 0 31 8 50 19 45 25 27 24 -25
-1z"/>
<path d="M3619 3057 c7 -7 14 -8 21 -1 6 6 2 10 -12 11 -16 2 -18 -1 -9 -10z"/>
<path d="M1620 3017 l65 -42 -40 -6 -40 -7 48 1 c26 0 47 2 47 3 0 9 -68 65
-85 71 -19 6 -18 7 5 14 20 6 16 7 -20 8 l-45 1 65 -43z"/>
<path d="M2198 3038 c-21 -12 -38 -26 -38 -31 0 -5 15 1 33 12 19 11 38 17 42
13 5 -4 5 -2 2 5 -4 6 -1 14 5 16 7 3 9 6 3 6 -5 0 -27 -9 -47 -21z"/>
<path d="M3730 3050 c0 -5 5 -10 11 -10 5 0 7 5 4 10 -3 6 -8 10 -11 10 -2 0
-4 -4 -4 -10z"/>
<path d="M1134 2979 c14 -11 32 -18 39 -16 7 4 6 6 -4 6 -9 1 -22 8 -29 16 -7
8 -17 15 -23 15 -5 0 2 -9 17 -21z"/>
<path d="M1920 2957 c-13 -26 -21 -31 -55 -33 -22 -1 -53 5 -68 12 -36 17 -32
-1 6 -30 23 -17 31 -18 67 -7 28 8 45 21 56 42 8 17 14 34 12 39 -2 4 -10 -6
-18 -23z"/>
<path d="M80 2976 c0 -2 9 -6 20 -9 11 -3 20 -1 20 4 0 5 -9 9 -20 9 -11 0
-20 -2 -20 -4z"/>
<path d="M1951 2962 c-1 -32 42 -72 77 -72 34 0 82 34 82 58 0 13 -3 12 -15
-5 -12 -18 -23 -21 -53 -18 -20 2 -44 4 -54 4 -9 1 -21 13 -26 29 -10 25 -10
25 -11 4z"/>
<path d="M2217 2969 c7 -7 15 -10 18 -7 3 3 -2 9 -12 12 -14 6 -15 5 -6 -5z"/>
<path d="M1850 2960 c0 -5 5 -10 10 -10 6 0 10 5 10 10 0 6 -4 10 -10 10 -5 0
-10 -4 -10 -10z"/>
<path d="M2000 2960 c0 -5 5 -10 10 -10 6 0 10 5 10 10 0 6 -4 10 -10 10 -5 0
-10 -4 -10 -10z"/>
<path d="M3841 2944 c0 -11 3 -14 6 -6 3 7 2 16 -1 19 -3 4 -6 -2 -5 -13z"/>
<path d="M2220 2945 c0 -6 -13 -19 -30 -28 -16 -10 -30 -24 -30 -30 0 -8 3 -8
8 -2 12 17 50 35 74 36 15 0 18 2 8 6 -8 3 -18 11 -22 17 -5 7 -8 7 -8 1z"/>
<path d="M1666 2919 c3 -5 -7 -11 -21 -15 -14 -3 -25 -10 -25 -14 0 -6 82 -40
97 -40 2 0 3 11 3 25 0 22 -3 24 -19 15 -11 -5 -30 -10 -43 -10 -22 0 -22 1 6
23 20 16 24 24 13 24 -9 0 -14 -4 -11 -8z"/>
<path d="M80 2910 c0 -5 5 -10 10 -10 6 0 10 5 10 10 0 6 -4 10 -10 10 -5 0
-10 -4 -10 -10z"/>
<path d="M3843 2899 c-2 -20 21 -26 32 -9 4 6 -1 7 -11 3 -11 -4 -15 -3 -10 5
3 6 3 13 -2 16 -4 2 -9 -4 -9 -15z"/>
<path d="M3362 2778 c-1 -76 1 -138 6 -138 4 0 6 42 4 92 -5 168 -8 185 -10
46z"/>
<path d="M1018 2893 c7 -3 16 -2 19 1 4 3 -2 6 -13 5 -11 0 -14 -3 -6 -6z"/>
<path d="M1268 2893 c6 -2 18 -2 25 0 6 3 1 5 -13 5 -14 0 -19 -2 -12 -5z"/>
<path d="M2560 2895 c0 -8 29 -12 39 -5 9 5 4 8 -13 8 -14 0 -26 -2 -26 -3z"/>
<path d="M2818 2893 c7 -3 16 -2 19 1 4 3 -2 6 -13 5 -11 0 -14 -3 -6 -6z"/>
<path d="M1298 2873 c7 -3 16 -2 19 1 4 3 -2 6 -13 5 -11 0 -14 -3 -6 -6z"/>
<path d="M1751 2858 c-1 -19 -5 -26 -15 -22 -8 3 -17 1 -21 -5 -3 -7 2 -11 13
-11 11 0 23 -7 26 -16 3 -8 2 -13 -3 -9 -5 3 -20 1 -33 -4 -22 -9 -21 -10 9
-10 31 -1 52 -28 39 -50 -3 -5 1 -11 9 -15 8 -3 15 -11 15 -19 0 -19 39 -52
75 -65 24 -9 14 -10 -55 -7 -47 2 -71 2 -55 -1 83 -12 94 -16 99 -32 3 -10 -1
-56 -9 -102 -8 -47 -14 -94 -14 -105 1 -11 8 16 16 60 20 114 30 131 73 127
19 -2 41 -9 48 -14 9 -8 12 -4 12 15 0 31 24 47 72 48 18 0 42 4 52 8 18 7 18
8 3 14 -9 3 -17 2 -17 -3 0 -6 -21 -10 -47 -9 -40 0 -44 2 -25 10 28 11 45 27
61 57 7 13 17 20 24 15 8 -5 8 -2 -1 9 -9 12 -10 17 -1 20 6 2 12 15 13 28 1
22 7 26 46 31 l45 6 -42 1 c-23 1 -45 -3 -48 -8 -4 -6 -10 -8 -14 -6 -4 3 -8
-1 -8 -9 0 -33 -27 -94 -47 -104 -11 -7 -38 -13 -59 -15 -21 -2 -40 -6 -43 -9
-3 -3 -17 -2 -30 3 -13 5 -30 7 -38 4 -23 -9 -72 22 -85 53 -6 15 -17 60 -25
98 -7 39 -14 58 -15 43z"/>
<path d="M67 2859 c7 -7 15 -10 18 -7 3 3 -2 9 -12 12 -14 6 -15 5 -6 -5z"/>
<path d="M1830 2860 c0 -5 12 -10 26 -10 14 0 23 4 19 10 -3 6 -15 10 -26 10
-10 0 -19 -4 -19 -10z"/>
<path d="M1338 2843 c7 -3 16 -2 19 1 4 3 -2 6 -13 5 -11 0 -14 -3 -6 -6z"/>
<path d="M1916 2836 c7 -18 39 -22 49 -6 3 6 -1 7 -10 4 -8 -4 -22 -1 -30 6
-13 11 -14 10 -9 -4z"/>
<path d="M2116 2835 c-11 -8 -17 -17 -14 -20 2 -3 13 4 23 15 21 23 18 25 -9
5z"/>
<path d="M3560 2826 c0 -8 4 -17 9 -20 5 -4 7 3 4 14 -6 23 -13 26 -13 6z"/>
<path d="M3733 2833 c4 -3 2 -12 -4 -19 -8 -9 -5 -11 10 -7 20 5 19 33 -2 33
-6 0 -7 -3 -4 -7z"/>
<path d="M3849 2828 c-6 -21 -5 -38 2 -38 5 0 9 9 9 20 0 16 -7 28 -11 18z"/>
<path d="M1435 2779 c5 -6 55 0 55 7 0 3 -13 3 -29 2 -16 -1 -28 -5 -26 -9z"/>
<path d="M2408 2783 c7 -3 16 -2 19 1 4 3 -2 6 -13 5 -11 0 -14 -3 -6 -6z"/>
<path d="M2643 2783 c9 -2 23 -2 30 0 6 3 -1 5 -18 5 -16 0 -22 -2 -12 -5z"/>
<path d="M3836 2768 c3 -4 11 -5 19 -1 21 7 19 12 -4 10 -11 0 -18 -5 -15 -9z"/>
<path d="M1863 2753 c-42 -5 -43 -23 -2 -23 26 0 30 -3 27 -22 -4 -27 47 -52
61 -29 6 9 11 10 15 3 8 -14 36 -4 33 11 -4 23 -31 36 -51 25 -14 -8 -17 -7
-10 4 6 10 5 11 -8 1 -15 -13 -28 -8 -28 10 0 5 31 6 75 2 47 -5 75 -4 75 3 0
18 -98 26 -187 15z"/>
<path d="M1535 2720 c3 -5 12 -7 20 -3 21 7 19 13 -6 13 -11 0 -18 -4 -14 -10z"/>
<path d="M2205 2720 c3 -5 8 -10 11 -10 2 0 4 5 4 10 0 6 -5 10 -11 10 -5 0
-7 -4 -4 -10z"/>
<path d="M1608 2693 c7 -3 16 -2 19 1 4 3 -2 6 -13 5 -11 0 -14 -3 -6 -6z"/>
<path d="M2113 2693 c15 -2 39 -2 55 0 15 2 2 4 -28 4 -30 0 -43 -2 -27 -4z"/>
<path d="M2238 2693 c6 -2 18 -2 25 0 6 3 1 5 -13 5 -14 0 -19 -2 -12 -5z"/>
<path d="M2525 2690 c-8 -13 5 -13 25 0 13 8 13 10 -2 10 -9 0 -20 -4 -23 -10z"/>
<path d="M3090 2641 c0 -5 9 -7 20 -4 11 3 20 7 20 9 0 2 -9 4 -20 4 -11 0
-20 -4 -20 -9z"/>
<path d="M923 2633 c9 -2 23 -2 30 0 6 3 -1 5 -18 5 -16 0 -22 -2 -12 -5z"/>
<path d="M1068 2633 c12 -2 30 -2 40 0 9 3 -1 5 -23 4 -22 0 -30 -2 -17 -4z"/>
<path d="M2523 2623 c9 -2 25 -2 35 0 9 3 1 5 -18 5 -19 0 -27 -2 -17 -5z"/>
<path d="M3831 2594 c0 -11 3 -14 6 -6 3 7 2 16 -1 19 -3 4 -6 -2 -5 -13z"/>
<path d="M1992 2560 c0 -14 2 -19 5 -12 2 6 2 18 0 25 -3 6 -5 1 -5 -13z"/>
<path d="M3850 2550 c-12 -8 -10 -10 8 -10 13 0 20 4 17 10 -7 12 -6 12 -25 0z"/>
<path d="M2880 2522 c0 -4 17 -9 37 -10 44 -3 42 3 -4 11 -18 4 -33 3 -33 -1z"/>
<path d="M2988 2523 c7 -3 16 -2 19 1 4 3 -2 6 -13 5 -11 0 -14 -3 -6 -6z"/>
<path d="M3050 2519 c-11 -7 -7 -9 18 -5 19 2 36 7 40 10 10 10 -42 6 -58 -5z"/>
<path d="M3135 2520 c19 -8 73 -14 64 -6 -2 2 -22 6 -44 9 -28 5 -34 4 -20 -3z"/>
<path d="M1058 2513 c7 -3 16 -2 19 1 4 3 -2 6 -13 5 -11 0 -14 -3 -6 -6z"/>
<path d="M1288 2513 c23 -2 61 -2 85 0 23 2 4 4 -43 4 -47 0 -66 -2 -42 -4z"/>
<path d="M1963 2480 c0 -25 2 -35 4 -22 2 12 2 32 0 45 -2 12 -4 2 -4 -23z"/>
<path d="M2001 2504 c0 -11 3 -14 6 -6 3 7 2 16 -1 19 -3 4 -6 -2 -5 -13z"/>
<path d="M2768 2513 c7 -3 16 -2 19 1 4 3 -2 6 -13 5 -11 0 -14 -3 -6 -6z"/>
<path d="M3840 2510 c0 -5 5 -10 11 -10 5 0 7 5 4 10 -3 6 -8 10 -11 10 -2 0
-4 -4 -4 -10z"/>
<path d="M3095 2500 c-3 -5 -1 -10 4 -10 6 0 11 5 11 10 0 6 -2 10 -4 10 -3 0
-8 -4 -11 -10z"/>
<path d="M585 2491 c-6 -5 -23 -11 -40 -14 -28 -4 -28 -4 6 -6 19 0 44 6 55
14 15 11 16 14 4 15 -9 0 -20 -4 -25 -9z"/>
<path d="M668 2493 c7 -3 16 -2 19 1 4 3 -2 6 -13 5 -11 0 -14 -3 -6 -6z"/>
<path d="M1018 2493 c12 -2 32 -2 45 0 12 2 2 4 -23 4 -25 0 -35 -2 -22 -4z"/>
<path d="M1128 2493 c7 -3 16 -2 19 1 4 3 -2 6 -13 5 -11 0 -14 -3 -6 -6z"/>
<path d="M2368 2493 c7 -3 16 -2 19 1 4 3 -2 6 -13 5 -11 0 -14 -3 -6 -6z"/>
<path d="M2418 2493 c12 -2 30 -2 40 0 9 3 -1 5 -23 4 -22 0 -30 -2 -17 -4z"/>
<path d="M2498 2493 c12 -2 30 -2 40 0 9 3 -1 5 -23 4 -22 0 -30 -2 -17 -4z"/>
<path d="M2778 2493 c7 -3 16 -2 19 1 4 3 -2 6 -13 5 -11 0 -14 -3 -6 -6z"/>
<path d="M2818 2493 c7 -3 16 -2 19 1 4 3 -2 6 -13 5 -11 0 -14 -3 -6 -6z"/>
<path d="M3841 2473 c0 -12 2 -14 6 -4 5 11 7 11 15 0 8 -12 9 -12 6 0 -6 22
-28 25 -27 4z"/>
<path d="M2012 2455 c0 -16 2 -22 5 -12 2 9 2 23 0 30 -3 6 -5 -1 -5 -18z"/>
<path d="M2080 2445 c0 -9 9 -15 23 -14 20 1 20 2 2 7 l-20 5 20 8 c19 7 19 8
-2 8 -14 1 -23 -5 -23 -14z"/>
<path d="M1698 2433 c6 -2 18 -2 25 0 6 3 1 5 -13 5 -14 0 -19 -2 -12 -5z"/>
<path d="M2027 2382 c5 -41 4 -43 -26 -55 -17 -6 -31 -15 -31 -19 0 -4 16 0
35 9 37 18 44 44 25 88 -6 14 -7 6 -3 -23z"/>
<path d="M1712 2390 c0 -14 2 -19 5 -12 2 6 2 18 0 25 -3 6 -5 1 -5 -13z"/>
<path d="M1766 2395 c-9 -26 -7 -32 5 -12 6 10 9 21 6 23 -2 3 -7 -2 -11 -11z"/>
<path d="M1952 2370 c0 -14 2 -19 5 -12 2 6 2 18 0 25 -3 6 -5 1 -5 -13z"/>
<path d="M1750 2357 c0 -2 15 -16 33 -33 l32 -29 -29 33 c-28 30 -36 37 -36
29z"/>
<path d="M2093 2353 c9 -2 23 -2 30 0 6 3 -1 5 -18 5 -16 0 -22 -2 -12 -5z"/>
<path d="M1698 2333 c7 -3 16 -2 19 1 4 3 -2 6 -13 5 -11 0 -14 -3 -6 -6z"/>
<path d="M1952 2320 c0 -14 2 -19 5 -12 2 6 2 18 0 25 -3 6 -5 1 -5 -13z"/>
<path d="M2088 2333 c6 -2 18 -2 25 0 6 3 1 5 -13 5 -14 0 -19 -2 -12 -5z"/>
<path d="M1821 2314 c0 -11 3 -14 6 -6 3 7 2 16 -1 19 -3 4 -6 -2 -5 -13z"/>
<path d="M2080 2298 c0 -17 6 -24 20 -24 11 0 20 4 20 8 0 4 -7 8 -16 8 -8 0
-13 4 -9 9 3 5 1 12 -5 16 -6 3 -10 -4 -10 -17z"/>
<path d="M1766 2256 c-23 -31 -25 -39 -16 -73 l10 -38 -5 39 c-3 30 1 46 22
72 14 19 23 34 20 34 -2 0 -16 -15 -31 -34z"/>
<path d="M1954 2205 c0 -49 1 -71 3 -48 2 23 2 64 0 90 -2 26 -3 8 -3 -42z"/>
<path d="M1986 2280 c4 -8 16 -26 26 -40 17 -24 17 -27 -2 -88 -11 -35 -20
-69 -19 -75 1 -11 49 131 49 143 -1 3 -14 21 -31 40 -17 19 -27 28 -23 20z"/>
<path d="M1698 2253 c6 -2 9 -10 6 -15 -4 -7 -2 -8 5 -4 13 9 5 26 -12 25 -9
0 -8 -2 1 -6z"/>
<path d="M2088 2253 c6 -2 18 -2 25 0 6 3 1 5 -13 5 -14 0 -19 -2 -12 -5z"/>
<path d="M1810 2182 c0 -38 -3 -79 -6 -89 -5 -13 -4 -15 4 -8 12 11 19 151 9
162 -4 3 -7 -26 -7 -65z"/>
<path d="M2080 2190 c0 -5 7 -7 15 -4 8 4 15 8 15 10 0 2 -7 4 -15 4 -8 0 -15
-4 -15 -10z"/>
<path d="M2093 2163 c9 -2 25 -2 35 0 9 3 1 5 -18 5 -19 0 -27 -2 -17 -5z"/>
<path d="M1694 2136 c-3 -8 -4 -25 -2 -38 3 -17 5 -13 9 15 5 38 2 47 -7 23z"/>
<path d="M1761 2129 c-1 -9 4 -41 10 -72 10 -49 9 -68 -10 -149 -22 -89 -43
-160 -62 -203 -24 -54 -81 -225 -91 -269 -5 -28 -18 -66 -29 -83 -10 -18 -17
-33 -15 -33 2 0 50 63 106 140 101 139 102 141 103 200 l2 60 47 0 c40 0 47
-3 51 -22 l4 -23 2 23 c1 18 7 22 31 22 17 0 30 -5 30 -12 0 -9 3 -10 8 -2 4
6 14 14 22 17 8 3 -31 6 -87 6 l-103 1 0 93 c1 50 6 112 11 137 6 25 12 61 14
80 4 34 4 34 -4 5 l-8 -30 -6 25 c-4 14 -11 43 -16 65 -5 22 -9 33 -10 24z"/>
<path d="M1951 2084 c0 -11 3 -14 6 -6 3 7 2 16 -1 19 -3 4 -6 -2 -5 -13z"/>
<path d="M1682 2040 c0 -14 2 -19 5 -12 2 6 2 18 0 25 -3 6 -5 1 -5 -13z"/>
<path d="M32 1990 c0 -19 2 -27 5 -17 2 9 2 25 0 35 -3 9 -5 1 -5 -18z"/>
<path d="M1960 2011 c0 -6 5 -13 10 -16 6 -3 10 1 10 9 0 9 -4 16 -10 16 -5 0
-10 -4 -10 -9z"/>
<path d="M1671 1994 c0 -11 3 -14 6 -6 3 7 2 16 -1 19 -3 4 -6 -2 -5 -13z"/>
<path d="M3771 1935 c-1 -22 -4 -56 -6 -75 -4 -28 -2 -31 6 -17 5 9 8 43 6 75
-2 45 -4 49 -6 17z"/>
<path d="M33 1910 c0 -25 2 -35 4 -22 2 12 2 32 0 45 -2 12 -4 2 -4 -23z"/>
<path d="M2111 1929 c0 -13 4 -33 9 -44 7 -14 8 -8 3 20 -7 46 -13 59 -12 24z"/>
<path d="M2131 1834 c0 -11 3 -14 6 -6 3 7 2 16 -1 19 -3 4 -6 -2 -5 -13z"/>
<path d="M2021 1759 c0 -13 4 -33 9 -44 7 -14 8 -8 3 20 -7 46 -13 59 -12 24z"/>
<path d="M3362 1755 c0 -16 2 -22 5 -12 2 9 2 23 0 30 -3 6 -5 -1 -5 -18z"/>
<path d="M3364 1565 c0 -88 2 -123 3 -77 2 46 2 118 0 160 -1 42 -3 5 -3 -83z"/>
<path d="M2021 1650 c-1 -40 7 -55 72 -142 79 -106 102 -124 38 -30 -22 33
-37 63 -33 67 4 5 2 5 -5 1 -14 -8 -37 32 -48 84 -13 60 -24 70 -24 20z"/>
<path d="M1566 1655 c-9 -26 -7 -32 5 -12 6 10 9 21 6 23 -2 3 -7 -2 -11 -11z"/>
<path d="M3731 1594 c0 -11 3 -14 6 -6 3 7 2 16 -1 19 -3 4 -6 -2 -5 -13z"/>
<path d="M1880 1563 c-16 -7 -27 -19 -61 -68 -14 -20 -9 -17 15 10 l37 40 -4
-83 c-3 -76 -2 -82 15 -76 10 3 18 1 18 -5 0 -6 -9 -11 -20 -11 -19 0 -20 -6
-18 -102 2 -98 2 -99 5 -23 4 103 6 107 38 95 16 -6 25 -6 25 0 0 6 -5 10 -11
10 -8 0 -9 4 0 13 6 8 7 18 3 22 -4 5 -1 5 6 1 7 -4 12 -13 11 -19 -4 -30 2
-77 9 -77 5 0 5 33 1 73 -4 39 -9 97 -12 127 l-4 54 24 -28 c13 -16 26 -26 28
-24 7 7 -64 78 -77 77 -7 0 -20 -3 -28 -6z"/>
<path d="M3716 1545 c-9 -26 -7 -32 5 -12 6 10 9 21 6 23 -2 3 -7 -2 -11 -11z"/>
<path d="M80 1545 c0 -5 5 -17 10 -25 5 -8 10 -10 10 -5 0 6 -5 17 -10 25 -5
8 -10 11 -10 5z"/>
<path d="M1521 1474 c0 -11 3 -14 6 -6 3 7 2 16 -1 19 -3 4 -6 -2 -5 -13z"/>
<path d="M2201 1454 c0 -11 3 -14 6 -6 3 7 2 16 -1 19 -3 4 -6 -2 -5 -13z"/>
<path d="M1751 1403 c-22 -32 -44 -62 -49 -68 -4 -5 -19 -26 -33 -45 -14 -19
-72 -98 -129 -175 -56 -77 -123 -168 -149 -203 -25 -35 -62 -84 -82 -110 -41
-54 -113 -153 -166 -230 -22 -31 -42 -51 -50 -48 -7 3 -12 2 -11 -2 1 -4 -3
-17 -10 -29 -8 -15 -9 -23 -2 -23 5 0 10 7 10 15 0 8 9 19 20 25 11 6 39 37
63 68 33 46 47 57 67 55 24 -2 24 -2 2 5 l-23 7 33 43 c18 24 41 42 53 43 19
0 19 1 1 8 -17 7 -17 9 6 36 14 17 57 75 97 130 40 55 81 111 91 125 11 14 25
34 33 44 13 18 14 18 21 -10 13 -57 28 -84 45 -82 9 2 19 7 22 11 4 5 22 9 42
10 20 0 33 5 30 10 -5 8 -27 5 -75 -9 -13 -4 -18 0 -18 16 0 12 -4 19 -9 16
-20 -13 -29 67 -10 94 9 12 10 11 6 -7 -3 -13 -1 -23 4 -23 5 0 9 14 9 32 0
28 40 97 62 106 4 2 8 9 8 16 0 7 5 17 12 24 9 9 15 7 25 -6 8 -9 11 -11 7 -3
-3 7 0 17 7 22 11 7 11 9 1 9 -9 0 -10 5 -2 19 6 13 17 17 30 14 19 -5 20 -12
16 -347 l-4 -341 9 385 c8 308 13 390 25 408 30 46 3 20 -35 -35z"/>
<path d="M2000 1456 c0 -2 8 -10 18 -17 15 -13 16 -12 3 4 -13 16 -21 21 -21
13z"/>
<path d="M3471 1414 c0 -11 3 -14 6 -6 3 7 2 16 -1 19 -3 4 -6 -2 -5 -13z"/>
<path d="M3839 1428 c-7 -18 -3 -58 5 -58 6 0 4 -5 -4 -10 -10 -6 -11 -10 -2
-10 23 0 27 2 24 12 -1 6 3 16 9 24 8 10 8 14 0 14 -6 0 -11 7 -11 15 0 12
-17 22 -21 13z"/>
<path d="M2041 1373 c4 -27 8 -57 9 -68 1 -19 2 -19 10 1 5 12 13 25 19 28 6
4 9 1 5 -7 -3 -8 0 -18 7 -23 8 -5 10 -3 4 6 -5 8 -4 11 3 6 6 -4 9 -13 6 -21
-4 -8 -11 -12 -17 -8 -6 4 -7 1 -1 -8 5 -8 7 -22 5 -33 -1 -11 2 -16 8 -12 6
4 11 15 12 24 1 11 4 8 9 -8 12 -36 12 -62 0 -55 -5 3 -10 1 -10 -4 0 -6 7
-11 16 -11 8 0 13 -3 11 -7 -3 -5 -1 -17 4 -28 5 -12 7 12 5 62 -3 81 -3 81
-55 147 -28 36 -53 66 -55 66 -1 0 1 -21 5 -47z"/>
<path d="M2210 1384 c0 -9 -5 -12 -12 -8 -9 5 -9 2 1 -9 17 -21 16 -22 19 8 1
14 0 25 -3 25 -3 0 -5 -7 -5 -16z"/>
<path d="M1521 1344 c0 -11 3 -14 6 -6 3 7 2 16 -1 19 -3 4 -6 -2 -5 -13z"/>
<path d="M875 1330 c4 -6 11 -8 16 -5 14 9 11 15 -7 15 -8 0 -12 -5 -9 -10z"/>
<path d="M2220 1336 c0 -2 8 -10 18 -17 15 -13 16 -12 3 4 -13 16 -21 21 -21
13z"/>
<path d="M935 1320 c-3 -6 1 -7 9 -4 18 7 21 14 7 14 -6 0 -13 -4 -16 -10z"/>
<path d="M1900 1322 c0 -5 7 -13 16 -16 10 -4 14 -1 12 6 -5 15 -28 23 -28 10z"/>
<path d="M3361 1078 c0 -142 2 -258 7 -258 7 0 6 470 -2 500 -2 8 -4 -101 -5
-242z"/>
<path d="M3826 1304 c-5 -12 -2 -15 10 -10 8 3 22 6 30 6 8 0 14 5 14 10 0 17
-47 11 -54 -6z"/>
<path d="M3836 1283 c-11 -11 -6 -23 9 -23 8 0 15 4 15 9 0 13 -16 22 -24 14z"/>
<path d="M1953 1240 c0 -25 2 -35 4 -22 2 12 2 32 0 45 -2 12 -4 2 -4 -23z"/>
<path d="M2052 1255 c0 -16 2 -22 5 -12 2 9 2 23 0 30 -3 6 -5 -1 -5 -18z"/>
<path d="M3700 1270 c-11 -7 -11 -10 -2 -10 7 0 10 -4 7 -10 -4 -6 1 -7 11 -3
11 4 13 8 6 11 -7 2 -10 8 -6 13 7 11 3 11 -16 -1z"/>
<path d="M2150 1263 c0 -6 7 -19 16 -27 8 -9 12 -16 7 -16 -4 0 3 -7 16 -16
22 -16 23 -22 18 -83 -3 -41 -2 -56 3 -41 4 14 8 40 9 58 l1 34 38 -49 39 -48
-26 -6 c-24 -6 -24 -7 7 -8 25 -1 37 -8 52 -33 10 -17 17 -35 14 -40 -3 -5 0
-7 7 -6 6 2 31 -26 55 -62 24 -36 47 -69 51 -75 15 -19 63 -95 63 -99 0 -3 -8
-7 -17 -9 -12 -3 -10 -5 7 -6 27 -1 55 -35 44 -53 -4 -7 -3 -8 4 -4 6 3 16 -2
21 -13 9 -16 7 -20 -12 -24 -19 -4 -19 -4 5 -6 18 -1 33 -11 47 -34 11 -18 31
-46 46 -62 14 -17 28 -38 31 -47 3 -10 9 -18 15 -18 5 0 0 14 -11 32 -18 30
-18 32 -2 45 15 13 15 13 -3 5 -16 -8 -24 -4 -47 26 -15 21 -28 40 -28 44 0 4
-34 57 -75 118 -41 61 -75 113 -75 116 0 7 -98 142 -190 258 -111 142 -129
163 -130 149z"/>
<path d="M2280 1256 c0 -2 8 -10 17 -17 9 -8 14 -9 10 -2 -4 6 -1 14 5 16 7 3
3 6 -9 6 -13 1 -23 -1 -23 -3z"/>
<path d="M3607 1224 c-12 -24 -14 -35 -5 -32 11 4 31 58 24 65 -1 1 -10 -13
-19 -33z"/>
<path d="M3816 1238 c7 -11 42 -10 49 2 4 6 -5 10 -24 8 -16 -1 -27 -6 -25
-10z"/>
<path d="M3838 1215 c-10 -11 5 -63 17 -59 7 3 10 15 7 30 -4 24 -15 37 -24
29z"/>
<path d="M1448 1183 c7 -3 16 -2 19 1 4 3 -2 6 -13 5 -11 0 -14 -3 -6 -6z"/>
<path d="M1963 1150 c0 -25 2 -35 4 -22 2 12 2 32 0 45 -2 12 -4 2 -4 -23z"/>
<path d="M2062 1165 c0 -16 2 -22 5 -12 2 9 2 23 0 30 -3 6 -5 -1 -5 -18z"/>
<path d="M1862 1140 c0 -14 2 -19 5 -12 2 6 2 18 0 25 -3 6 -5 1 -5 -13z"/>
<path d="M78 1135 c-10 -10 5 -55 18 -55 8 0 14 5 14 10 0 6 -5 10 -12 10 -9
0 -9 3 0 12 7 7 12 16 12 20 0 9 -24 11 -32 3z"/>
<path d="M3700 1124 c0 -8 5 -12 10 -9 6 3 10 10 10 16 0 5 -4 9 -10 9 -5 0
-10 -7 -10 -16z"/>
<path d="M3840 1114 l-25 -15 25 6 c20 5 22 4 8 -4 -18 -12 -14 -43 8 -62 11
-9 14 -8 14 5 0 9 -5 16 -11 16 -7 0 -5 10 5 25 29 44 20 56 -24 29z"/>
<path d="M1399 1103 c-13 -16 -12 -17 4 -4 16 13 21 21 13 21 -2 0 -10 -8 -17
-17z"/>
<path d="M2147 1074 c3 -64 13 -69 13 -6 0 29 -3 52 -7 52 -5 0 -7 -21 -6 -46z"/>
<path d="M3745 1092 c-38 -8 -44 -20 -28 -52 15 -32 40 -42 29 -13 -4 10 -4
14 0 11 9 -9 34 17 34 36 0 19 -9 24 -35 18z m5 -22 c0 -5 -7 -7 -15 -4 -8 4
-15 8 -15 10 0 2 7 4 15 4 8 0 15 -4 15 -10z"/>
<path d="M1370 1070 c-8 -5 -12 -12 -9 -15 4 -3 12 1 19 10 14 17 11 19 -10 5z"/>
<path d="M1851 717 c-1 -246 -5 -375 -12 -389 -9 -16 -8 -19 3 -16 10 4 14 69
16 336 2 256 5 332 15 332 8 0 8 3 -2 9 -28 18 -5 36 45 36 l49 0 6 -50 c4
-27 5 -131 3 -230 -2 -99 -4 -226 -4 -282 l0 -102 -38 -4 -37 -4 38 -1 c35 -2
37 -4 37 -34 0 -18 4 -28 8 -22 4 7 16 14 27 17 17 4 17 5 -4 6 l-24 1 8 264
c6 235 -1 502 -12 469 -3 -8 -24 -13 -58 -13 -48 0 -54 3 -58 23 -2 12 -5
-144 -6 -346z"/>
<path d="M3525 1059 c-10 -30 0 -33 13 -4 6 14 7 25 2 25 -5 0 -12 -9 -15 -21z"/>
<path d="M80 1050 c0 -5 7 -7 15 -4 8 4 15 8 15 10 0 2 -7 4 -15 4 -8 0 -15
-4 -15 -10z"/>
<path d="M2183 1028 c-9 -20 -17 -24 -45 -21 -26 2 -29 1 -13 -6 19 -9 19 -10
1 -10 -11 -1 -17 -4 -13 -7 3 -3 19 -3 36 1 31 7 56 36 49 57 -2 6 -9 -1 -15
-14z"/>
<path d="M2459 1025 c20 -42 35 -52 61 -45 l25 8 -27 1 c-16 1 -35 12 -48 29
-11 15 -17 18 -11 7z"/>
<path d="M3821 1028 c-1 -23 15 -31 36 -19 16 9 16 10 -4 11 -12 0 -24 6 -26
13 -3 7 -6 6 -6 -5z"/>
<path d="M80 1020 c0 -5 5 -10 11 -10 5 0 7 5 4 10 -3 6 -8 10 -11 10 -2 0 -4
-4 -4 -10z"/>
<path d="M1703 1023 c9 -2 23 -2 30 0 6 3 -1 5 -18 5 -16 0 -22 -2 -12 -5z"/>
<path d="M2070 1010 c0 -5 7 -7 15 -4 8 4 15 8 15 10 0 2 -7 4 -15 4 -8 0 -15
-4 -15 -10z"/>
<path d="M3488 998 c-20 -31 -30 -60 -19 -53 12 7 43 67 37 72 -2 2 -10 -7
-18 -19z"/>
<path d="M3755 1010 c-3 -5 -14 -10 -25 -10 -23 0 -35 -29 -15 -36 8 -4 23 -3
33 1 15 7 14 9 -8 15 l-25 8 26 1 c15 1 29 8 33 16 6 17 -9 21 -19 5z"/>
<path d="M64 993 c15 -4 16 -7 5 -14 -11 -7 -11 -9 -1 -9 7 0 20 7 28 15 14
13 12 15 -18 14 -20 -1 -25 -3 -14 -6z"/>
<path d="M1314 988 c-37 -63 -37 -63 -11 -33 25 28 33 45 23 45 -3 0 -8 -6
-12 -12z"/>
<path d="M1238 983 c6 -2 18 -2 25 0 6 3 1 5 -13 5 -14 0 -19 -2 -12 -5z"/>
<path d="M1703 983 c9 -2 23 -2 30 0 6 3 -1 5 -18 5 -16 0 -22 -2 -12 -5z"/>
<path d="M1903 983 c9 -2 23 -2 30 0 6 3 -1 5 -18 5 -16 0 -22 -2 -12 -5z"/>
<path d="M2078 983 c7 -3 16 -2 19 1 4 3 -2 6 -13 5 -11 0 -14 -3 -6 -6z"/>
<path d="M3738 943 c-10 -2 -18 -10 -18 -16 0 -7 -4 -6 -10 3 -5 8 -10 11 -10
7 0 -4 8 -19 17 -34 16 -25 16 -26 -5 -43 -16 -13 -18 -19 -8 -23 16 -6 28
-58 16 -70 -9 -11 -1 -47 11 -47 5 0 9 5 9 11 0 5 5 7 11 3 8 -4 9 6 5 34 -3
28 -1 46 8 54 11 11 11 16 -1 26 -17 17 -17 32 2 32 8 0 15 5 15 10 0 6 -8 10
-17 10 -15 0 -14 2 3 16 18 15 18 15 0 10 -13 -5 -17 -2 -12 9 3 8 4 14 3 14
-1 -1 -10 -3 -19 -6z"/>
<path d="M3840 950 c-6 -17 -4 -120 3 -120 4 0 7 5 7 12 0 6 3 8 7 5 3 -4 -2
-16 -12 -27 -16 -18 -16 -20 -1 -26 9 -4 20 -4 23 0 4 3 0 6 -7 6 -9 0 -8 5 4
19 15 16 15 21 3 32 -14 14 -12 44 6 67 7 8 5 12 -6 12 -8 0 -18 6 -20 13 -3
6 -6 10 -7 7z"/>
<path d="M196 914 c19 -15 19 -16 -1 -9 -11 3 -16 3 -12 -1 4 -4 2 -12 -3 -19
-7 -8 -3 -11 13 -10 32 2 26 55 -6 55 -6 0 -2 -7 9 -16z"/>
<path d="M82 901 c4 -13 18 -16 19 -4 0 4 -5 9 -11 12 -7 2 -11 -2 -8 -8z"/>
<path d="M2559 875 c5 -11 17 -29 26 -40 l16 -20 -10 20 c-5 11 -17 29 -26 40
l-16 20 10 -20z"/>
<path d="M3619 878 c-15 -51 -15 -72 3 -76 19 -4 35 37 24 63 -4 12 -24 21
-27 13z"/>
<path d="M472 850 c0 -14 2 -19 5 -12 2 6 2 18 0 25 -3 6 -5 1 -5 -13z"/>
<path d="M201 850 c-11 -6 -10 -9 5 -13 16 -4 15 -5 -4 -6 -18 -1 -21 -5 -16
-25 3 -13 1 -27 -5 -30 -14 -9 -14 -26 0 -26 5 0 7 5 4 10 -3 6 -1 10 4 10 6
0 11 -4 11 -10 0 -19 16 -10 17 10 1 11 -3 20 -8 20 -6 0 -7 5 -4 10 3 6 0 10
-7 11 -7 0 -3 4 10 9 22 9 29 25 14 34 -4 2 -14 1 -21 -4z"/>
<path d="M75 840 c3 -5 13 -10 21 -10 8 0 14 5 14 10 0 6 -9 10 -21 10 -11 0
-17 -4 -14 -10z"/>
<path d="M1205 824 c-9 -15 -12 -23 -6 -20 11 7 35 46 28 46 -3 0 -12 -12 -22
-26z"/>
<path d="M1706 801 c-4 -5 3 -7 14 -4 23 6 26 13 6 13 -8 0 -17 -4 -20 -9z"/>
<path d="M1893 803 c9 -2 25 -2 35 0 9 3 1 5 -18 5 -19 0 -27 -2 -17 -5z"/>
<path d="M2075 800 c-3 -5 -1 -10 4 -10 6 0 11 5 11 10 0 6 -2 10 -4 10 -3 0
-8 -4 -11 -10z"/>
<path d="M2613 803 c9 -2 25 -2 35 0 9 3 1 5 -18 5 -19 0 -27 -2 -17 -5z"/>
<path d="M3362 785 c0 -16 2 -22 5 -12 2 9 2 23 0 30 -3 6 -5 -1 -5 -18z"/>
<path d="M75 790 c-4 -6 3 -10 14 -10 25 0 27 6 6 13 -8 4 -17 2 -20 -3z"/>
<path d="M1175 779 c-4 -6 -5 -12 -2 -15 2 -3 7 2 10 11 7 17 1 20 -8 4z"/>
<path d="M2620 780 c0 -5 5 -10 11 -10 5 0 7 5 4 10 -3 6 -8 10 -11 10 -2 0
-4 -4 -4 -10z"/>
<path d="M3607 783 c-11 -10 -8 -20 8 -27 10 -4 15 1 15 14 0 20 -11 26 -23
13z"/>
<path d="M3836 773 c-11 -11 -6 -23 9 -23 8 0 15 4 15 9 0 13 -16 22 -24 14z"/>
<path d="M313 763 c-17 -6 -17 -30 0 -30 7 0 14 9 14 19 1 10 1 18 0 17 -1 0
-8 -3 -14 -6z"/>
<path d="M86 752 c-6 -10 -2 -39 7 -48 4 -4 7 7 7 24 0 32 -4 39 -14 24z"/>
<path d="M3360 510 c0 -134 2 -241 5 -238 8 7 9 468 1 475 -3 4 -6 -103 -6
-237z"/>
<path d="M183 733 c9 -2 23 -2 30 0 6 3 -1 5 -18 5 -16 0 -22 -2 -12 -5z"/>
<path d="M1145 730 c-4 -6 -10 -8 -15 -5 -5 3 -12 0 -16 -6 -4 -8 -3 -9 4 -5
20 12 13 -5 -19 -45 -17 -21 -27 -39 -22 -39 11 1 90 110 79 110 -3 0 -8 -5
-11 -10z"/>
<path d="M1903 733 c9 -2 23 -2 30 0 6 3 -1 5 -18 5 -16 0 -22 -2 -12 -5z"/>
<path d="M3295 729 c-4 -6 -5 -12 -2 -15 2 -3 7 2 10 11 7 17 1 20 -8 4z"/>
<path d="M3607 734 c-11 -12 3 -24 29 -24 27 0 32 15 8 24 -20 8 -29 8 -37 0z"/>
<path d="M3840 703 c1 -26 1 -27 12 -8 6 11 16 23 22 27 6 5 1 8 -11 8 -18 0
-23 -6 -23 -27z"/>
<path d="M306 708 c3 -5 10 -6 15 -3 13 9 11 12 -6 12 -8 0 -12 -4 -9 -9z"/>
<path d="M2669 702 c5 -10 18 -25 28 -33 12 -10 11 -5 -6 19 -24 35 -38 43
-22 14z"/>
<path d="M182 701 c-11 -7 -11 -9 2 -14 9 -4 13 -13 10 -22 -4 -10 0 -15 10
-15 12 0 16 7 13 27 -4 30 -15 37 -35 24z"/>
<path d="M2075 691 c-3 -5 -2 -12 3 -15 5 -3 9 1 9 9 0 17 -3 19 -12 6z"/>
<path d="M3719 682 c-14 -16 -13 -20 7 -41 l21 -23 6 28 c5 29 0 54 -12 54 -4
0 -13 -8 -22 -18z"/>
<path d="M3610 681 c0 -10 36 -21 44 -14 3 3 3 10 0 14 -7 12 -44 12 -44 0z"/>
<path d="M80 640 c0 -6 7 -10 15 -10 8 0 15 2 15 4 0 2 -7 6 -15 10 -8 3 -15
1 -15 -4z"/>
<path d="M303 638 c2 -7 -3 -18 -12 -25 -13 -9 -11 -10 10 -6 27 5 39 43 13
43 -9 0 -14 -6 -11 -12z"/>
<path d="M2724 616 c16 -46 28 -59 16 -16 -5 19 -14 38 -19 43 -5 5 -4 -7 3
-27z"/>
<path d="M3605 641 c-7 -12 31 -25 46 -15 8 4 7 9 -2 15 -18 11 -36 11 -44 0z"/>
<path d="M3826 642 c6 -4 10 -19 8 -34 -3 -30 2 -33 26 -18 11 7 11 10 2 10
-8 0 -10 5 -5 13 15 23 10 33 -16 35 -14 1 -21 -2 -15 -6z"/>
<path d="M1023 633 c9 -2 23 -2 30 0 6 3 -1 5 -18 5 -16 0 -22 -2 -12 -5z"/>
<path d="M1758 553 c4 -156 8 -171 10 -40 1 70 -1 127 -5 127 -5 0 -7 -39 -5
-87z"/>
<path d="M2088 633 c6 -2 18 -2 25 0 6 3 1 5 -13 5 -14 0 -19 -2 -12 -5z"/>
<path d="M2748 633 c7 -3 16 -2 19 1 4 3 -2 6 -13 5 -11 0 -14 -3 -6 -6z"/>
<path d="M190 620 c0 -13 11 -13 30 0 12 8 11 10 -7 10 -13 0 -23 -4 -23 -10z"/>
<path d="M1052 614 c9 -8 -21 -76 -45 -101 -11 -13 -16 -23 -11 -23 11 0 31
29 60 88 18 35 19 42 6 42 -8 0 -13 -3 -10 -6z"/>
<path d="M3610 600 c0 -6 7 -10 15 -10 8 0 15 2 15 4 0 2 -7 6 -15 10 -8 3
-15 1 -15 -4z"/>
<path d="M3710 598 c-11 -4 -20 -10 -20 -12 0 -3 7 -3 16 1 14 5 16 1 12 -20
-3 -15 -2 -27 2 -27 4 0 7 -12 8 -27 0 -16 0 -34 1 -40 1 -15 37 -17 46 -3 3
6 -1 10 -9 10 -22 0 -15 36 10 55 16 12 16 14 2 9 -22 -8 -35 22 -21 45 8 13
7 17 -8 17 -10 0 -27 -4 -39 -8z"/>
<path d="M98 583 c6 -2 9 -10 6 -15 -4 -7 -2 -8 5 -4 13 9 5 26 -12 25 -9 0
-8 -2 1 -6z"/>
<path d="M173 556 c0 -8 8 -14 18 -13 10 1 16 4 13 8 -2 4 2 10 8 12 7 3 1 6
-13 6 -16 1 -26 -4 -26 -13z"/>
<path d="M3625 562 c-16 -12 -16 -32 0 -32 8 0 15 6 15 14 0 8 8 17 18 19 14
4 14 5 -3 6 -11 0 -24 -3 -30 -7z"/>
<path d="M2078 553 c6 -2 18 -2 25 0 6 3 1 5 -13 5 -14 0 -19 -2 -12 -5z"/>
<path d="M2598 553 c6 -2 18 -2 25 0 6 3 1 5 -13 5 -14 0 -19 -2 -12 -5z"/>
<path d="M2762 544 c10 -10 20 -16 22 -13 3 3 -5 11 -17 18 -21 13 -21 12 -5
-5z"/>
<path d="M2873 553 c9 -2 23 -2 30 0 6 3 -1 5 -18 5 -16 0 -22 -2 -12 -5z"/>
<path d="M2943 553 c15 -2 37 -2 50 0 12 2 0 4 -28 4 -27 0 -38 -2 -22 -4z"/>
<path d="M83 535 c0 -8 4 -15 9 -15 4 0 8 4 8 9 0 6 -4 12 -8 15 -5 3 -9 -1
-9 -9z"/>
<path d="M300 540 c0 -5 5 -10 11 -10 5 0 7 5 4 10 -3 6 -8 10 -11 10 -2 0 -4
-4 -4 -10z"/>
<path d="M2070 531 c0 -4 11 -6 25 -3 14 2 25 6 25 8 0 2 -11 4 -25 4 -14 0
-25 -4 -25 -9z"/>
<path d="M2935 530 c-3 -6 1 -7 9 -4 18 7 21 14 7 14 -6 0 -13 -4 -16 -10z"/>
<path d="M3851 531 c-15 -10 -7 -31 12 -31 7 0 13 9 14 20 2 22 -4 24 -26 11z"/>
<path d="M980 520 c-9 -6 -10 -10 -3 -10 6 0 15 5 18 10 8 12 4 12 -15 0z"/>
<path d="M3046 504 c-15 -14 -26 -27 -24 -30 3 -2 20 9 39 26 19 16 30 30 24
30 -5 -1 -23 -12 -39 -26z"/>
<path d="M300 510 c0 -5 5 -10 11 -10 5 0 7 5 4 10 -3 6 -8 10 -11 10 -2 0 -4
-4 -4 -10z"/>
<path d="M2973 500 c14 -11 28 -20 32 -20 4 0 -4 9 -18 20 -14 11 -28 20 -32
20 -4 0 4 -9 18 -20z"/>
<path d="M3614 505 c-4 -8 -1 -22 6 -30 10 -12 10 -15 -1 -15 -11 0 -11 -2 1
-10 10 -6 11 -10 3 -10 -7 0 -13 -4 -13 -10 0 -15 23 -12 46 5 16 13 16 14 2
9 -13 -5 -18 -1 -18 14 0 12 5 24 10 27 6 4 5 12 -4 21 -18 18 -25 18 -32 -1z"/>
<path d="M63 495 c-3 -9 -3 -19 1 -22 3 -4 6 1 6 10 0 8 8 18 18 20 16 4 16 5
-1 6 -10 0 -20 -6 -24 -14z"/>
<path d="M281 484 c0 -11 3 -14 6 -6 3 7 2 16 -1 19 -3 4 -6 -2 -5 -13z"/>
<path d="M955 476 c-11 -17 -23 -22 -43 -20 l-27 4 25 -9 c25 -9 25 -9 -5 -11
-26 -2 -27 -3 -7 -7 24 -5 56 17 73 49 14 26 2 22 -16 -6z"/>
<path d="M3852 479 c-27 -10 -20 -29 11 -29 16 0 18 3 8 9 -11 7 -11 9 0 13 8
3 12 8 9 10 -3 3 -15 2 -28 -3z"/>
<path d="M190 455 c0 -9 6 -12 15 -9 8 4 15 7 15 9 0 2 -7 5 -15 9 -9 3 -15 0
-15 -9z"/>
<path d="M2972 458 c-7 -7 -54 -32 -105 -55 l-92 -41 -30 49 c-16 27 -34 49
-38 49 -4 0 -6 -4 -3 -9 4 -5 0 -12 -6 -14 -8 -4 -7 -6 4 -6 23 -1 61 -63 45
-73 -7 -4 15 -7 48 -6 33 0 49 3 36 5 l-23 5 25 13 c14 7 39 16 56 20 17 4 31
10 31 14 0 4 6 8 13 9 6 1 30 6 52 11 26 6 32 9 16 10 -20 1 -21 3 -11 16 15
18 -1 20 -18 3z"/>
<path d="M1042 447 c12 -8 7 -22 -25 -83 -24 -47 -44 -74 -55 -74 -14 0 -15
-2 -2 -10 19 -12 36 3 50 46 7 20 16 31 22 28 7 -4 8 -2 4 4 -3 6 3 26 14 44
26 42 25 57 -1 55 -17 -1 -18 -3 -7 -10z"/>
<path d="M77 434 c-8 -8 1 -24 13 -24 4 0 10 7 14 15 5 15 -14 21 -27 9z"/>
<path d="M292 428 c6 -18 25 -20 31 -3 5 10 0 15 -14 15 -12 0 -19 -5 -17 -12z"/>
<path d="M3705 430 c-3 -5 -1 -10 4 -10 6 0 11 -9 11 -20 0 -11 6 -20 12 -20
7 0 2 -7 -10 -16 -21 -14 -21 -16 -5 -32 12 -12 18 -13 21 -4 2 7 8 10 13 6 5
-3 8 8 7 25 -1 17 -5 31 -9 31 -3 0 -5 11 -4 25 3 19 -1 25 -15 25 -10 0 -22
-4 -25 -10z"/>
<path d="M3837 423 c-14 -14 -6 -23 21 -23 19 0 23 3 13 9 -11 7 -11 9 0 14 9
3 6 6 -7 6 -11 1 -24 -2 -27 -6z"/>
<path d="M190 410 c0 -5 5 -10 10 -10 6 0 10 5 10 10 0 6 -4 10 -10 10 -5 0
-10 -4 -10 -10z"/>
<path d="M870 411 c0 -11 31 -24 39 -16 3 3 -1 10 -9 15 -19 12 -30 12 -30 1z"/>
<path d="M2071 404 c0 -11 3 -14 6 -6 3 7 2 16 -1 19 -3 4 -6 -2 -5 -13z"/>
<path d="M3625 393 c3 -12 1 -24 -5 -28 -5 -3 -10 -11 -10 -16 0 -6 5 -7 12
-3 7 5 8 3 2 -7 -14 -24 -12 -35 7 -35 15 0 18 7 15 36 -2 20 -8 45 -15 56
-11 18 -12 18 -6 -3z"/>
<path d="M3645 400 c3 -5 8 -10 11 -10 2 0 4 5 4 10 0 6 -5 10 -11 10 -5 0 -7
-4 -4 -10z"/>
<path d="M90 390 c0 -5 5 -10 11 -10 5 0 7 5 4 10 -3 6 -8 10 -11 10 -2 0 -4
-4 -4 -10z"/>
<path d="M315 390 c-3 -5 -1 -10 4 -10 6 0 11 5 11 10 0 6 -2 10 -4 10 -3 0
-8 -4 -11 -10z"/>
<path d="M3850 382 c-23 -11 -23 -40 1 -52 18 -10 20 -9 18 12 -2 13 0 29 4
36 9 13 1 15 -23 4z"/>
<path d="M196 371 c-3 -5 2 -11 12 -13 11 -3 19 0 19 8 0 16 -23 19 -31 5z"/>
<path d="M1765 363 c2 -10 6 -31 10 -47 7 -26 6 -28 -16 -22 l-24 7 23 -13
c17 -11 19 -17 11 -25 -18 -18 -18 -178 0 -195 8 -7 11 -8 8 -2 -20 35 -16
191 4 178 5 -3 9 10 9 28 0 49 -11 108 -21 108 -4 0 -6 -8 -4 -17z"/>
<path d="M2868 353 c6 -2 18 -2 25 0 6 3 1 5 -13 5 -14 0 -19 -2 -12 -5z"/>
<path d="M2050 329 c0 -5 5 -7 10 -4 6 3 10 8 10 11 0 2 -4 4 -10 4 -5 0 -10
-5 -10 -11z"/>
<path d="M3725 300 c-3 -5 -1 -10 4 -10 6 0 11 5 11 10 0 6 -2 10 -4 10 -3 0
-8 -4 -11 -10z"/>
<path d="M3836 303 c-16 -16 -4 -33 22 -32 17 1 20 3 9 6 -9 2 -15 8 -12 13 7
11 -10 22 -19 13z"/>
<path d="M300 290 c0 -6 7 -10 15 -10 8 0 15 2 15 4 0 2 -7 6 -15 10 -8 3 -15
1 -15 -4z"/>
<path d="M1865 280 c3 -5 10 -10 16 -10 5 0 9 5 9 10 0 6 -7 10 -16 10 -8 0
-12 -4 -9 -10z"/>
<path d="M198 273 c7 -3 16 -2 19 1 4 3 -2 6 -13 5 -11 0 -14 -3 -6 -6z"/>
<path d="M3718 273 c7 -3 16 -2 19 1 4 3 -2 6 -13 5 -11 0 -14 -3 -6 -6z"/>
<path d="M1840 256 c0 -8 4 -16 9 -18 5 -1 11 -44 13 -95 1 -50 7 -89 12 -86
5 3 6 34 2 69 l-6 63 27 4 28 4 -27 2 c-26 1 -34 16 -30 53 1 3 -5 9 -13 12
-9 3 -15 0 -15 -8z"/>
<path d="M1967 263 c-10 -9 -9 -23 1 -23 5 0 9 7 9 15 0 17 -1 18 -10 8z"/>
<path d="M2050 260 c0 -6 7 -10 15 -10 8 0 15 2 15 4 0 2 -7 6 -15 10 -8 3
-15 1 -15 -4z"/>
<path d="M1898 253 c7 -3 16 -2 19 1 4 3 -2 6 -13 5 -11 0 -14 -3 -6 -6z"/>
<path d="M2118 253 c6 -2 18 -2 25 0 6 3 1 5 -13 5 -14 0 -19 -2 -12 -5z"/>
<path d="M473 205 c0 -22 2 -30 4 -17 2 12 2 30 0 40 -3 9 -5 -1 -4 -23z"/>
<path d="M1960 216 c0 -8 -8 -16 -17 -18 -15 -3 -14 -5 5 -10 18 -5 22 -2 22
18 0 13 -2 24 -5 24 -3 0 -5 -6 -5 -14z"/>
<path d="M3363 165 c0 -38 2 -53 4 -32 2 20 2 52 0 70 -2 17 -4 1 -4 -38z"/>
<path d="M1948 163 c7 -3 16 -2 19 1 4 3 -2 6 -13 5 -11 0 -14 -3 -6 -6z"/>
<path d="M1951 133 c-1 -17 5 -23 19 -23 12 0 35 -7 52 -16 16 -9 27 -11 24
-5 -8 13 5 15 20 3 5 -4 29 -5 54 -2 44 5 44 5 -25 13 -111 12 -134 18 -138
36 -3 11 -5 9 -6 -6z"/>
<path d="M2217 139 c7 -7 15 -10 18 -7 3 3 -2 9 -12 12 -14 6 -15 5 -6 -5z"/>
<path d="M593 113 c43 -2 110 -2 150 0 40 1 5 3 -78 3 -82 0 -115 -2 -72 -3z"/>
<path d="M848 113 c12 -2 32 -2 45 0 12 2 2 4 -23 4 -25 0 -35 -2 -22 -4z"/>
<path d="M948 113 c17 -2 47 -2 65 0 17 2 3 4 -33 4 -36 0 -50 -2 -32 -4z"/>
<path d="M1098 113 c7 -3 16 -2 19 1 4 3 -2 6 -13 5 -11 0 -14 -3 -6 -6z"/>
<path d="M1163 113 c15 -2 39 -2 55 0 15 2 2 4 -28 4 -30 0 -43 -2 -27 -4z"/>
<path d="M1278 113 c12 -2 32 -2 45 0 12 2 2 4 -23 4 -25 0 -35 -2 -22 -4z"/>
<path d="M1670 113 c8 -2 25 -9 37 -15 13 -6 26 -8 30 -5 3 4 -2 7 -13 8 -18
0 -18 1 1 9 15 6 9 9 -25 9 -25 -1 -38 -3 -30 -6z"/>
<path d="M1890 105 c0 -9 9 -15 23 -15 16 0 19 3 8 9 -11 7 -10 10 5 14 13 3
11 5 -8 6 -19 1 -28 -4 -28 -14z"/>
<path d="M2215 111 c-6 -5 -19 -11 -30 -13 -11 -3 3 -5 30 -5 28 0 41 2 31 5
-15 3 -16 6 -5 13 12 7 11 9 -1 9 -9 0 -20 -4 -25 -9z"/>
<path d="M2260 116 c0 -2 7 -7 16 -10 8 -3 12 -2 9 4 -6 10 -25 14 -25 6z"/>
<path d="M2418 113 c7 -3 16 -2 19 1 4 3 -2 6 -13 5 -11 0 -14 -3 -6 -6z"/>
<path d="M3115 110 c3 -5 8 -10 11 -10 2 0 4 5 4 10 0 6 -5 10 -11 10 -5 0 -7
-4 -4 -10z"/>
<path d="M3148 113 c6 -2 18 -2 25 0 6 3 1 5 -13 5 -14 0 -19 -2 -12 -5z"/>
<path d="M3282 112 c-8 -6 -2 -9 18 -9 20 0 26 3 18 9 -7 4 -15 8 -18 8 -3 0
-11 -4 -18 -8z"/>
<path d="M3011 50 c0 -29 1 -32 10 -17 7 11 7 23 0 35 -9 14 -10 11 -10 -18z"/>
<path d="M3191 72 c0 -7 -5 -10 -11 -7 -6 4 -10 -6 -9 -22 0 -25 1 -26 9 -8 8
19 9 18 9 -4 1 -24 1 -24 17 -5 8 10 12 13 8 5 -5 -9 -3 -12 4 -7 17 11 15 39
-2 33 -9 -4 -17 1 -19 11 -3 9 -5 11 -6 4z"/>
<path d="M2955 54 c-20 -16 -19 -16 4 -9 20 6 23 4 18 -9 -4 -10 -3 -14 2 -11
5 3 12 -3 14 -12 3 -10 4 -3 3 16 -2 40 -13 47 -41 25z"/>
<path d="M3053 50 c-41 -16 -27 -33 22 -28 35 4 45 2 48 -11 4 -13 5 -13 6 2
1 11 6 15 13 11 7 -4 8 -3 4 4 -4 7 -2 12 3 12 20 0 11 16 -8 17 -14 1 -18 -3
-15 -15 5 -15 4 -15 -6 1 -12 19 -33 21 -67 7z m47 -16 c0 -2 -7 -4 -15 -4 -8
0 -15 4 -15 10 0 5 7 7 15 4 8 -4 15 -8 15 -10z"/>
<path d="M3275 52 c-3 -3 -5 -10 -5 -16 0 -6 5 -4 10 4 13 20 13 4 0 -21 -6
-10 -8 -19 -5 -19 9 0 31 23 38 40 4 12 6 12 6 -1 1 -19 31 -48 31 -30 0 6 -4
11 -9 11 -5 0 -8 8 -7 17 1 13 -7 18 -26 19 -15 1 -30 -1 -33 -4z"/>
<path d="M3250 23 c0 -21 3 -24 9 -14 5 8 7 20 4 28 -8 21 -13 15 -13 -14z"/>
</g>
</svg>
